<svg xmlns="http://www.w3.org/2000/svg" fill="none" viewBox="0 0 24 32" height="32" width="24">
<path fill="#1ED760" d="M18.788 3.70204C18.6058 3.51343 18.505 3.26083 18.5073 2.99863C18.5096 2.73644 18.6148 2.48563 18.8002 2.30022C18.9856 2.11481 19.2364 2.00964 19.4986 2.00736C19.7608 2.00508 20.0134 2.10588 20.202 2.28804L23.914 6.00004L20.202 9.71204C20.1098 9.80755 19.9994 9.88373 19.8774 9.93614C19.7554 9.98855 19.6242 10.0161 19.4914 10.0173C19.3586 10.0184 19.2269 9.99314 19.104 9.94286C18.9811 9.89258 18.8695 9.81832 18.7756 9.72443C18.6817 9.63054 18.6075 9.51889 18.5572 9.39599C18.5069 9.27309 18.4816 9.14141 18.4827 9.00863C18.4839 8.87586 18.5115 8.74464 18.5639 8.62263C18.6163 8.50063 18.6925 8.39028 18.788 8.29804L20.086 7.00004H18.568C17.8391 6.99991 17.1189 7.15916 16.458 7.46664C15.7971 7.77412 15.2114 8.22239 14.742 8.78004L7.396 17.51C6.73903 18.2911 5.91922 18.919 4.99402 19.3498C4.06881 19.7806 3.06059 20.0039 2.04 20.004H1V18.004H2.04C2.76901 18.004 3.4892 17.8446 4.15011 17.537C4.81102 17.2293 5.39666 16.7809 5.866 16.223L13.211 7.49304C13.8683 6.71194 14.6885 6.08405 15.614 5.6534C16.5396 5.22275 17.5481 4.99975 18.569 5.00004H20.087L18.788 3.70204Z"></path>
<path fill="#1ED760" d="M18.788 14.289C18.6005 14.4766 18.4952 14.7309 18.4952 14.996C18.4952 15.2612 18.6005 15.5155 18.788 15.703L20.086 17H18.568C17.8391 17.0002 17.1189 16.8409 16.458 16.5334C15.7971 16.226 15.2114 15.7777 14.742 15.22L13.339 13.552L12.033 15.106L13.211 16.506C13.8681 17.2872 14.688 17.9152 15.6134 18.346C16.5388 18.7768 17.5472 19.0001 18.568 19H20.086L18.788 20.298C18.6925 20.3903 18.6163 20.5006 18.5639 20.6226C18.5115 20.7446 18.4839 20.8759 18.4827 21.0086C18.4816 21.1414 18.5069 21.2731 18.5572 21.396C18.6075 21.5189 18.6817 21.6305 18.7756 21.7244C18.8695 21.8183 18.9811 21.8926 19.104 21.9429C19.2269 21.9931 19.3586 22.0184 19.4914 22.0173C19.6242 22.0161 19.7554 21.9885 19.8774 21.9361C19.9994 21.8837 20.1098 21.8075 20.202 21.712L23.914 18L20.202 14.287C20.0145 14.0996 19.7602 13.9942 19.495 13.9942C19.2298 13.9942 18.9755 14.0996 18.788 14.287V14.289ZM7.396 6.49004L9.419 8.89404L8.112 10.447L5.866 7.77704C5.39657 7.21939 4.81088 6.77112 4.14998 6.46364C3.48907 6.15616 2.76893 5.99691 2.04 5.99704H1V3.99704H2.04C3.06051 3.99704 4.06868 4.22018 4.99388 4.65082C5.91908 5.08146 6.73893 5.70919 7.396 6.49004Z"></path>
<circle fill="#1ED760" r="2" cy="30" cx="12"></circle>
</svg>
