<svg xmlns="http://www.w3.org/2000/svg" fill="none" viewBox="0 0 26 26" height="26" width="26">
<path fill="white" d="M20.3536 4.0105C20.1562 3.80618 20.0471 3.53253 20.0495 3.24848C20.052 2.96443 20.1659 2.69272 20.3668 2.49186C20.5676 2.291 20.8394 2.17707 21.1234 2.1746C21.4074 2.17213 21.6811 2.28133 21.8854 2.47867L25.9068 6.5L21.8854 10.5213C21.7855 10.6248 21.6659 10.7073 21.5338 10.7641C21.4016 10.8209 21.2594 10.8508 21.1156 10.852C20.9718 10.8533 20.8291 10.8259 20.696 10.7714C20.5628 10.7169 20.4419 10.6365 20.3402 10.5348C20.2384 10.433 20.158 10.3121 20.1035 10.1789C20.0491 10.0458 20.0216 9.90316 20.0229 9.75931C20.0241 9.61547 20.054 9.47332 20.1108 9.34114C20.1676 9.20897 20.2501 9.08943 20.3536 8.9895L21.7598 7.58333H20.1153C19.3256 7.58319 18.5454 7.75572 17.8294 8.08882C17.1135 8.42192 16.479 8.90754 15.9704 9.51167L8.01225 18.9692C7.30053 19.8153 6.41241 20.4955 5.4101 20.9622C4.4078 21.429 3.31556 21.6709 2.20992 21.671H1.08325V19.5043H2.20992C2.99968 19.5043 3.77989 19.3316 4.49587 18.9984C5.21186 18.6651 5.8463 18.1792 6.35475 17.5749L14.3118 8.11742C15.0239 7.27122 15.9124 6.59102 16.9151 6.12448C17.9178 5.65793 19.0104 5.41635 20.1163 5.41667H21.7608L20.3536 4.0105Z"></path>
<path fill="white" d="M20.3536 15.4797C20.1505 15.6829 20.0364 15.9584 20.0364 16.2457C20.0364 16.5329 20.1505 16.8084 20.3536 17.0116L21.7598 18.4167H20.1153C19.3256 18.4168 18.5454 18.2443 17.8294 17.9112C17.1135 17.5781 16.479 17.0925 15.9704 16.4883L14.4505 14.6813L13.0357 16.3648L14.3118 17.8815C15.0237 18.7277 15.912 19.4081 16.9145 19.8748C17.917 20.3415 19.0094 20.5834 20.1153 20.5833H21.7598L20.3536 21.9895C20.2501 22.0894 20.1676 22.209 20.1108 22.3411C20.054 22.4733 20.0241 22.6155 20.0229 22.7593C20.0216 22.9032 20.0491 23.0458 20.1035 23.1789C20.158 23.3121 20.2384 23.433 20.3402 23.5348C20.4419 23.6365 20.5628 23.7169 20.696 23.7714C20.8291 23.8259 20.9718 23.8533 21.1156 23.852C21.2594 23.8508 21.4016 23.8209 21.5338 23.7641C21.6659 23.7073 21.7855 23.6248 21.8854 23.5213L25.9068 19.5L21.8854 15.4776C21.6823 15.2745 21.4068 15.1604 21.1195 15.1604C20.8322 15.1604 20.5567 15.2745 20.3536 15.4776V15.4797ZM8.01225 7.03083L10.2038 9.63517L8.78792 11.3176L6.35475 8.42508C5.8462 7.82096 5.21171 7.33534 4.49573 7.00224C3.77975 6.66914 2.99959 6.49661 2.20992 6.49675H1.08325V4.33008H2.20992C3.31547 4.33009 4.40766 4.57182 5.40996 5.03835C6.41226 5.50488 7.30043 6.18492 8.01225 7.03083Z"></path>
</svg>
